<?xml version="1.0" encoding="UTF-8"?>
<svg version="1.1" viewBox="0 0 2048 2048" width="1280" height="1280" xmlns="http://www.w3.org/2000/svg">
<path transform="translate(1229,383)" d="m0 0h15l21 3 16 5 21 10 14 10 12 11 10 11 11 17 7 15 5 16 3 17v28l-3 17-6 18-8 16-8 12-11 13-394 394-5 7-4 10-1 6v11l3 10 6 10 11 12 389 389 11 15 8 14 6 14 5 20 1 8v28l-4 20-5 15-8 16-8 12-11 13-12 11-15 10-19 9-21 6-14 2h-25l-18-3-15-5-16-8-10-6-10-8-10-9-399-399v-2h-2l-9-11-13-17-13-20-11-20-12-28-9-29-5-24-3-21-1-12v-37l3-26 5-26 8-27 8-21 8-17 11-20 8-12 11-15 13-16 5-6h2l2-4 396-396 8-7 14-10 17-9 17-6 16-3z" fill="#fff"/>
</svg>
