<?xml version="1.0" encoding="UTF-8"?>
<svg version="1.1" viewBox="0 0 2048 2048" width="1280" height="1280" xmlns="http://www.w3.org/2000/svg">
<path transform="translate(953)" d="m0 0h140l39 9 30 9 29 11 26 12 20 11 21 13 34 23 24 16 16 11 43 29 25 17 36 24 99 67 12 8 25 17 12 8 117 79 12 8 19 13 12 8 40 27 24 16 16 11 31 21 17 12 12 9 11 9 13 11 9 9 8 7 12 13 10 11 11 14 10 13 16 24 10 17 12 23 8 17 10 25 10 32 8 36 4 25h2v895l-2 1-6 36-6 26-8 26-7 19-9 21-8 17-13 23-10 16-8 12-12 16-13 16-2 3h-2l-2 4-16 17-9 9-8 7-10 9-14 11-19 14-22 14-16 9-23 12-25 11-35 12-36 9-34 6-12 2h-125l-1-6-1-192-2-26-5-35-6-30-8-29-11-33-12-29-15-31-13-23-16-25-13-18-16-20-11-13-11-12-29-29-11-9-13-11-16-12-20-14-21-13-23-13-26-13-37-15-30-10-35-9-33-6-35-4-15-1h-57l-33 3-33 5-35 8-30 9-25 9-30 13-32 16-20 12-24 16-18 13-16 13-8 7-10 9-8 7-23 23-7 8-13 15-13 17-11 15-12 18-8 13-13 23-13 26-10 24-8 21-9 29-8 33-5 28-3 22-2 27-1 33v165l-1 1h-125l-45-8-30-7-36-12-20-8-25-12-17-9-21-13-20-14-14-11-13-11-12-11-13-12-7-8-8-8-9-11-12-15-13-18-12-19-12-21-14-29-11-28-9-29-7-30-5-31v-6h-2v-885l2-8 6-35 6-25 8-26 7-19 9-21 10-21 14-24 7-11 8-12 9-12 11-14 11-13 7-7 7-8 11-11 8-7 10-9 14-11 19-14 22-15 24-16 19-13 24-16 22-15 24-16 19-13 31-21 15-10 34-23 71-48 12-8 28-19 15-10 37-25 24-16 22-15 34-23 37-25 24-16 19-13 60-40 21-12 21-11 26-11 36-12 40-10zm61 512-30 2-30 5-28 7-21 7-24 10-25 13-18 11-17 12-14 11-11 10-8 7-15 15-9 11-8 9-14 19-12 19-13 24-11 25-10 30-6 24-4 24-2 16-1 17v28l2 24 4 26 5 22 7 24 11 28 14 28 15 24 14 19 11 13 9 10 21 21 8 7 14 11 18 13 15 9 18 10 21 10 26 10 25 7 24 5 20 3 26 2h26l26-2 26-4 30-7 29-10 18-8 17-8 27-16 17-12 16-13 8-7 10-9 16-16 9-11 14-17 13-20 9-15 10-19 11-26 9-27 6-25 4-24 2-18 1-28-1-24-4-33-6-28-8-26-8-21-14-29-12-21-14-20-11-14-13-15-22-22-11-9-15-12-18-12-20-12-15-8-28-12-27-9-24-6-23-4-22-2-19-1z" fill="#FEFEFE"/>
<path transform="translate(1009,1535)" d="m0 0h29l25 2 27 4 32 8 21 7 26 11 27 14 17 11 14 10 14 11 14 12 7 7 6 5 7 8 11 12 13 17 10 14 11 18 10 18 11 24 10 28 7 27 4 21 3 28 1 20v176h-684l-1-23v-117l1-50 2-22 5-30 6-24 9-27 12-28 12-22 10-16 12-17 13-16 11-13h2l2-4 12-12h2v-2l11-9 12-10 18-13 16-10 18-10 16-8 27-11 23-7 25-6 26-4z" fill="#FEFEFE"/>
<path transform="translate(1012,682)" d="m0 0h25l22 3 15 4 17 6 19 10 14 9 11 9 10 9 7 7 11 14 9 14 10 19 8 24 4 20 1 8v31l-4 23-6 20-7 16-9 17-11 15-9 10-6 7-8 7-13 10-15 9-16 8-24 8-20 4-10 1h-29l-20-3-18-5-24-10-17-10-13-10-10-9-13-13-12-16-11-19-8-19-5-17-4-22-1-13v-10l2-19 4-20 6-18 12-25 11-16 8-10 7-8 8-7 15-12 16-10 16-8 16-6 21-5z" fill="#FEFEFE"/>
<path transform="translate(379,2047)" d="m0 0 4 1z" fill="#fff"/>
<path transform="translate(1097)" d="m0 0" fill="#fff"/>
</svg>
