<?xml version="1.0" encoding="UTF-8"?>
<svg version="1.1" viewBox="0 0 800 800" width="1280" height="1280" xmlns="http://www.w3.org/2000/svg">
<path transform="translate(146,275)" d="m0 0 7 1 46 15 36 12 49 16 98 32v87l-9-2-55-18-38-12-36-12-12-3v37l-1 53-10 6-56 32-17 10h-2z" fill="#F53131"/>
<path transform="translate(418,363)" d="m0 0 11 3 93 31h5l1-29h134v162l-9-2-122-40-82-27-31-10z" fill="#F53131"/>
<path transform="translate(418,110)" d="m0 0 14 7 24 14 23 13 45 26 24 14 23 13 24 14 28 16 22 13-3 3-26 15-48 28-7 4-6-1-90-49-46-25-1-66z" fill="#A1A1A1"/>
<path transform="translate(381,110)" d="m0 0h1v105l-16 9-22 13-25 15-26 15-20 12-19 11-5-1-24-13-52-29-10-6 3-3 22-13 15-9 32-19 20-12 28-17 14-8 20-12 32-19 15-9z" fill="#A1A1A1"/>
<path transform="translate(550,510)" d="m0 0 6 1 27 16 14 8 24 14 17 10 1 2-28 16-24 14-28 16-19 11-45 26-45 26-26 15-5 3h-2v-20l1-66 1-16 45-26 24-14 52-30z" fill="#A1A1A1"/>
<path transform="translate(250,510)" d="m0 0 5 1 29 17 15 9 29 17 15 9 27 16 12 7v102l-5-2-22-13-28-17-29-17-28-17-32-19-65-39-4-3v-2l56-34z" fill="#A1A1A1"/>
<path transform="translate(65,227)" d="m0 0 11 6 21 12 13 8 1 1v296l-17 10-26 15h-3z" fill="#335ECB"/>
<path transform="translate(381,24)" d="m0 0h2v51l-21 12-26 15-21 12-26 15-21 12-26 15-28 16-24 14-23 13-24 14-14 8-4-1-25-14-15-9v-2l16-9 24-14 21-12 24-14 23-13 24-14 52-30 24-14 26-15 28-16 19-11z" fill="#335ECB"/>
<path transform="translate(676,582)" d="m0 0 6 2 17 10 19 11 1 2-23 13-17 10-52 30-21 12-43 25-21 12-24 14-23 13-24 14-52 30h-2l1-49 13-8 28-16 24-14 26-15 23-13 24-14 26-15 21-12 52-30z" fill="#335ECB"/>
<path transform="translate(418,23)" d="m0 0 14 7 41 24 26 15 28 16 45 26 24 14 52 30 21 12 24 14 28 16-1 3-22 12-17 10-5-1-26-15-24-14-52-30-24-14-26-15-24-14-52-30-19-11-11-7z" fill="#335ECB"/>
<path transform="translate(127,582)" d="m0 0 5 1 17 10 25 15 24 14 51 30 73 43 15 9 29 17 16 10v49l-5-2-17-10-27-16-24-14-29-17-17-10-25-15-26-15-56-33-51-30-19-11v-2l20-11z" fill="#335ECB"/>
<path transform="translate(736,230)" d="m0 0h2v288l-1 56-5-2-27-15-9-6v-298l21-12z" fill="#355FCB"/>
</svg>
