<?xml version="1.0" encoding="UTF-8"?>
<svg version="1.1" viewBox="0 0 2048 2048" width="1280" height="1280" xmlns="http://www.w3.org/2000/svg">
<path transform="translate(1522,938)" d="m0 0h27l29 3 27 6 24 8 24 11 22 12 224 128 29 17 20 14 13 11 13 12 14 15 12 16 10 15 10 17 9 20 7 19 7 26 3 15h2v377h-2l-5 25-7 24-8 20-8 16-9 16-8 12-10 13-11 13-17 17-10 8-13 10-19 12-26 15-28 16-23 13-26 15-23 13-126 72-23 12-18 8-21 7-25 6-31 5h-40l-3-2-23-4-21-5-24-8-24-11-23-13-70-40-26-15-28-16-23-13-26-15-56-32-25-15-17-12-13-11-24-24-11-14-12-17-10-17-11-24-10-30-5-24-3-26v-336l3-25 5-23 6-20 8-20 8-16 9-16 12-17 16-20h2l2-4 12-12 11-9 10-8 21-14 26-15 28-16 23-13 24-14 25-14 21-12 26-15 84-48 25-13 17-7 27-8 26-5zm4 172-15 3-15 6-25 14-24 14-23 13-24 14-27 15-21 12-26 15-23 13-24 14-18 10-2 2 9 6 23 13 25 14 23 13 18 10 25 14 23 13 25 14 23 13 21 12 27 15 23 13 10 6 5-1 23-13 27-15 23-13 27-15 23-13 25-14 23-13 18-10 28-16 27-15 23-13 6-4-4-4-23-13-24-14-27-15-17-10-28-16-24-14-27-15-24-14-25-14-16-9-16-6-12-2zm-331 307v235l2 13 6 16 7 12 8 10 10 9 18 11 112 64 25 14 24 14 18 10 22 13h3v-278l-24-14-27-15-21-12-27-15-25-14-23-13-25-14-23-13-25-14-16-9-18-10zm679 1-24 13-21 12-50 28-23 13-25 14-46 26-50 28-12 7-1 1v278l5-2 22-12 19-11 21-12 24-14 25-14 24-14 25-14 24-14 18-10 15-10 12-11 9-13 6-12 4-15 1-8v-234z" fill="#fff"/>
<path transform="translate(508)" d="m0 0h103v1l50 8 28 6 35 10 23 8 25 10 26 12 24 12 22 13 17 11 16 11 16 12 10 8 11 9 10 9 8 7 12 11 12 12 7 8 12 13 9 11 12 15 13 18 16 24 9 15 10 17 8 16 12 25 13 33 12 37 8 32 5 26 5 35 2 26 1 23v20l-2 40-4 33-6 34-9 36-7 23-11 30-13 30-16 32-10 17-15 24-10 14-8 11-14 18-12 14-11 12-9 10-15 15-8 7-13 12-14 11-16 13-20 14-17 11-20 12-22 12-31 15-33 13-24 8-37 10-35 7-37 5-24 2-22 1h-24l-33-2-28-3-36-6-30-7-31-9-28-10-22-9-24-11-19-10-23-13-25-16-19-14-13-10-16-13-14-13-8-7-26-26-7-8-9-10-11-14-12-15-11-16-10-15-8-13-12-21-12-23-11-24-13-34-10-31-8-32-5-26-5-35v-7h-2v-103l2-9 5-35 6-30 8-31 12-36 11-28 13-28 12-23 15-25 10-15 12-17 12-16 13-16 3-4h2l2-4 14-15 4-5h2l2-4 8-8 8-7 15-14 11-9 16-13 17-12 13-9 22-14 25-14 17-9 29-13 35-13 29-9 38-9 27-5zm35 86-14 3-16 7-13 9-12 12-8 13-4 8-4 12-3 20-51 2-25 4-19 5-15 5-18 8-17 9-12 8-16 12-12 11-16 16-11 14-7 10-8 13-8 15-9 23-5 17-4 19-2 23v24l3 26 6 25 7 20 8 18 8 14 8 12 9 12 12 14 10 10 11 9 13 10 16 10 19 10 17 7 25 7 44 8 145 24 100 17 16 4 10 5 10 8 7 10 5 11 2 11v8l-2 12-8 16-9 9-10 6-10 4-11 2h-216l-15-3-12-5-11-6-11-9-8-9-13-19-11-12-14-10-16-7-18-4h-15l-14 2-15 5-12 7-10 8-8 8-7 10-8 16-4 17-1 17 3 17 6 16 11 18 14 19 11 12 7 8 14 13 11 9 14 10 13 8 14 8 18 8 25 9 26 6 21 3 24 2 1 1 2 15 5 17 7 13 8 10 10 10 14 9 12 5 11 3 6 1h21l14-3 12-5 11-6 10-8 9-9 9-14 6-15 3-14 1-11h34l24-2 26-5 30-10 25-12 18-11 12-9 11-9 12-11v-2h2l7-8 11-13 13-20 12-23 6-15 7-25 4-23 1-13v-26l-3-26-6-25-6-18-9-20-9-16-11-16-8-10-11-12-12-12-17-13-15-10-16-9-24-10-24-7-31-6-162-27-101-17-13-4-11-6-8-7-7-10-5-11-2-11 1-14 4-12 6-10 7-8 11-7 10-4 4-1h225l13 3 13 5 14 9 10 9 9 11 10 15 7 8 13 10 11 6 13 5 9 2 15 1 13-1 15-4 16-8 13-10 7-7 10-15 5-11 4-15v-26l-3-13-5-12-10-18-12-16-9-11-11-12-11-11-11-9-13-10-21-13-23-12-24-9-17-5-21-4-25-3h-16l-2-17-5-17-7-13-10-13-9-8-11-7-13-6-17-4z" fill="#fff"/>
<path transform="translate(1560)" d="m0 0h39v2l9 2 16 8 11 8 10 10 7 10 8 16 4 16v27l-4 15-8 16-9 13-14 14-7 8-17 17-7 8-24 24-7 8-14 14-3 4h-2l-2 4-10 10 177 1 32 2 27 4 26 6 30 10 24 10 19 10 14 8 18 12 12 9 11 9 14 12 20 20 9 11 10 12 12 17 13 21 14 27 11 27 7 22 7 30 3 16 2 1v238l-2 1-6 16-8 13-11 12-11 9-16 8-19 5-7 1h-11l-14-2-12-4-16-8-13-11-9-10-7-11-6-15-3-14-1-51v-99l-1-47-3-21-6-21-9-21-8-14-10-14-11-12-1-3-4-2-11-10-10-7-13-8-21-10-19-6-21-4-12-1-179-1 3 5 12 12 7 8 14 14 7 8 14 14v2h2l7 8 9 9 7 8 17 17 7 8 9 12 8 16 4 16v26l-4 16-8 16-7 10-7 8h-2v2l-10 7-15 8-17 5-6 1h-20l-17-4-13-6-11-7-10-9-19-19v-2h-2l-7-8-18-18v-2h-2l-7-8-17-17-7-8-12-12-7-8-17-17v-2h-2l-7-8-20-20-7-8-18-18v-2h-2l-7-8-10-10-7-8-8-9-9-13-9-16-8-19-6-22-3-22v-21l2-18 5-22 7-19 11-21 9-13 8-10 5-6h2l2-4 18-18 7-8 16-16 1-2h2l2-4 21-21 7-8 16-16 2-3h2l2-4 21-21 7-8 13-13 1-2h2v-2h2v-2h2l2-4 17-17 7-8 24-24 14-9 13-6z" fill="#fff"/>
<path transform="translate(77,1194)" d="m0 0h18l15 3 12 5 14 8 12 11 7 8 7 11 6 15 3 14 1 185 2 23 4 19 6 18 9 19 10 16 13 16 13 13 13 10 14 9 16 8 18 7 21 5 14 2 14 1h172l-7-8-9-10-11-11-7-8-15-15-7-8-10-10v-2h-2l-7-8-14-14v-2h-2l-7-8-8-8-9-12-8-16-4-15-1-8v-13l3-16 5-14 7-12 7-9 10-10 14-9 11-5 16-4h26l16 4 16 8 11 8 13 12v2h2l7 8 17 17 7 8 18 18 7 8 16 16 7 8 17 17 7 8 18 18 7 8 20 20 7 8 18 18 7 8 11 12 13 18 10 19 7 18 5 20 2 14v36l-3 18-5 19-6 15-11 21-10 14-11 13-7 8h-2l-2 4-18 18-7 8-20 20-7 8-18 18-1 2h-2l-2 4-19 19-7 8-17 17-7 8-20 20-1 2h-2l-2 4-16 16-1 2h-2v2h-2l-2 4-8 8-11 9-14 8-13 5-6 2h-33l-17-6-15-8-11-9-10-11-9-15-5-14-3-17v-11l3-17 5-14 7-12 8-10 7-7 1-2h2l2-4 22-22 2-3h2l2-4 15-15 1-2h2l2-4 22-22 7-8 16-16 1-2-189-1-25-2-30-5-26-7-26-9-18-8-16-8-20-11-12-8-14-10-10-8-14-12-7-7-7-6-7-8-7-7-9-11-14-18-11-17-10-17-12-24-10-26-8-26-7-33-2-12-1-4v-228h2l2-9 4-10 9-14 11-12 14-10 15-7 12-3z" fill="#fff"/>
<path transform="translate(449,2047)" d="m0 0 2 1z" fill="#fff"/>
</svg>
